# xmcd
#
# Track frame offsets:
#	150
#	13586
#	30058
#	46429
#	64994
#	77337
#	90510
#	105611
#	118718
#	132283
#	147815
#	167046
#	180913
#	198522
#	215531
#
# Disc length: 3112 seconds
#
# Revision: 0
# Processed by: cddbd v1.5PL3 Copyright (c) Steve Scherf et al.
# Submitted via: dBpowerAMP V4.0
#
DISCID=bd0c260f
DTITLE=John Anderson - Anthology [CD2]
DYEAR=1900
DGENRE=
TTITLE0=Black Sheep
TTITLE1=Goin' Down Hill
TTITLE2=I Wish I Could Have Been There
TTITLE3=Bend It Untill It Breaks
TTITLE4=Tokyo Oklahoma
TTITLE5=Straight Tequila Night
TTITLE6=Let Go Of The Stone
TTITLE7=I've Got It Made
TTITLE8=Small Farm In Kentucky
TTITLE9=Somebody Slap Me
TTITLE10=Mississippi Moon
TTITLE11=Money In The Bank
TTITLE12=When It Comes To You
TTITLE13=Peace In The Valley
TTITLE14=Seminole Wind
EXTD=
EXTT0=
EXTT1=
EXTT2=
EXTT3=
EXTT4=
EXTT5=
EXTT6=
EXTT7=
EXTT8=
EXTT9=
EXTT10=
EXTT11=
EXTT12=
EXTT13=
EXTT14=
PLAYORDER=
